
A young girl is institutionalized by her abusive stepfather. Retreating to an alternative reality as a coping strategy, she envisions a plan which will help her escape from the mental facility.



Director: Duncan Jones
Writer: Ben Ripley
Stars: Jake Gyllenhaal, Michelle Monaghan and Vera Farmiga



Format : Matroska
File size : 1.68 GiB
Duration : 1h 49mn
Overall bit rate : 2 195 Kbps
Writing application : Lavf51.12.1
Writing library : Lavf51.12.1

Video
ID : 1
Format : AVC
Format/Info : Advanced Video Codec
Format profile : Baseline@L1.0
Format settings, CABAC : No
Format settings, ReFrames : 1 frame
Format settings, GOP : M=1, N=12
Codec ID : V_MPEG4/ISO/AVC
Duration : 1h 49mn
Bit rate : 1 960 Kbps
Width : 640 pixels
Height : 272 pixels
Display aspect ratio : 16:9
Original display aspect ratio : 16:9
Frame rate : 23.976 fps
Color space : YUV
Chroma subsampling : 4:2:0
Bit depth : 8 bits
Scan type : Progressive
Bits/(Pixel*Frame) : 0.469
Stream size : 1.50 GiB (89%)
Language : English

Audio
ID : 2
Format : AC-3
Format/Info : Audio Coding 3
Mode extension : CM (complete main)
Codec ID : A_AC3
Duration : 1h 49mn
Bit rate mode : Constant
Bit rate : 192 Kbps
Channel(s) : 6 channels
Channel positions : Front: L C R, Side: L R, LFE
Sampling rate : 44.1 KHz
Bit depth : 16 bits
Compression mode : Lossy
Stream size : 151 MiB (9%)
Language : English
 
http://img808.imageshack.us/img808/2038/suckerpunchdvdripmkvac3.jpg
 
http://img819.imageshack.us/img819/2397/bscap0000jt.jpg
 
http://img685.imageshack.us/img685/2504/bscap0001ivv.jpg
 
http://img651.imageshack.us/img651/7809/bscap0002bx.jpg
 
http://img269.imageshack.us/img269/9813/bscap0004qx.jpg